/* XPM */
static char *pac_man__1_1672317863[] = {
/* columns rows colors chars-per-pixel */
"64 64 2 1 ",
"  c None",
". c #FFF100",
/* pixels */
"                                                                ",
"                                                                ",
"                                                                ",
"                                                                ",
"                                                                ",
"                                                                ",
"                                                                ",
"                                                                ",
"                          ..................                    ",
"                          ..................                    ",
"                          ..................                    ",
"                          ..................                    ",
"                  ..........................                    ",
"                  ..........................                    ",
"                  ...........  .............                    ",
"                  ...........  .............                    ",
"                ........................                        ",
"                ........................                        ",
"                ........................                        ",
"                ........................                        ",
"                ....................                            ",
"                ....................                            ",
"            ....................                                ",
"            ....................                                ",
"          ......................                                ",
"          ......................                                ",
"          ......................                                ",
"          ......................                                ",
"          ....................                                  ",
"          ....................                                  ",
"          ....................                                  ",
"          ....................                                  ",
"          ..................                                    ",
"          ..................                                    ",
"          ....................                                  ",
"          ....................                                  ",
"          ....................                                  ",
"          ....................                                  ",
"          ......................                                ",
"          ......................                                ",
"            ....................                                ",
"            ....................                                ",
"                ....................                            ",
"                ....................                            ",
"                ....................                            ",
"                ....................                            ",
"                ........................                        ",
"                ........................                        ",
"                  ..........................                    ",
"                  ..........................                    ",
"                  ..........................                    ",
"                  ..........................                    ",
"                        ....................                    ",
"                        ....................                    ",
"                          ..................                    ",
"                          ..................                    ",
"                                                                ",
"                                                                ",
"                                                                ",
"                                                                ",
"                                                                ",
"                                                                ",
"                                                                ",
"                                                                "
};
