/* XPM */
static char *wall__1_1672317863[] = {
/* columns rows colors chars-per-pixel */
"64 64 106 2 ",
"   c None",
".  c #001429",
"X  c #021334",
"o  c #011539",
"O  c #041544",
"+  c #05164B",
"@  c #08144D",
"#  c #071653",
"$  c #091452",
"%  c #001E53",
"&  c #09165B",
"*  c #011E5C",
"=  c #0D1664",
"-  c #031E63",
";  c #0F166B",
":  c #061E69",
">  c #091E6F",
",  c #10166F",
"<  c #0B1E75",
"1  c #0D1E7B",
"2  c #121675",
"3  c #121678",
"4  c #012771",
"5  c #002E7C",
"6  c #0F1D81",
"7  c #111E84",
"8  c #141E8C",
"9  c #171E92",
"0  c #191E96",
"q  c #1C1E9C",
"w  c #022E83",
"e  c #052E8C",
"r  c #082E8F",
"t  c #02388F",
"y  c #0A2E94",
"u  c #0D2E99",
"i  c #102E9F",
"p  c #033894",
"a  c #1E1EA1",
"s  c #132DA5",
"d  c #172EAC",
"f  c #182DAC",
"g  c #1B2EB3",
"h  c #1E2EB8",
"j  c #212EBD",
"k  c #094DAD",
"l  c #155EAB",
"z  c #195EAF",
"x  c #175DB1",
"c  c #1B5DB4",
"v  c #1E5DBA",
"b  c #225DBD",
"n  c #1A66B6",
"m  c #1D67BC",
"M  c #252EC3",
"N  c #282EC6",
"B  c #2B2ECB",
"V  c #255DC3",
"C  c #295DC7",
"Z  c #2B5DCC",
"A  c #2F5DD0",
"S  c #325ED4",
"D  c #365EDA",
"F  c #3A5EDE",
"G  c #247ACA",
"H  c #3E5EE1",
"J  c #435EE6",
"K  c #475EE9",
"L  c #495EE9",
"P  c #3796DB",
"I  c #3997DB",
"U  c #3DA5DB",
"Y  c #41A6DC",
"T  c #43AADF",
"R  c #46A4E1",
"E  c #4BA5E4",
"W  c #45ACE0",
"Q  c #4AABE3",
"!  c #4FA5E8",
"~  c #53A5EB",
"^  c #59A6EE",
"/  c #4FB6E7",
"(  c #54BAE7",
")  c #52B7E9",
"_  c #56BDEB",
"`  c #58BFEC",
"'  c #5BA5F1",
"]  c #63A5F4",
"[  c #6CA5F7",
"{  c #6FA4F8",
"}  c #5BC2EC",
"|  c #52C7F3",
" . c #54CAF3",
".. c #5CCAF5",
"X. c #5DD1F4",
"o. c #61CBF6",
"O. c #65CAF9",
"+. c #6BCAFA",
"@. c #74CAFB",
"#. c #7BCAFD",
"$. c #64D4F6",
"%. c #69D6F6",
"&. c #6CD9F6",
"*. c #71DCF7",
"=. c #73E0F6",
"-. c #81CAFD",
/* pixels */
"    &.%.o.....o.o.O.O.O.+.+.+.@.#.#.-.-.-.-.-.#.@.@.+.+.+.+.o.o.o.` | ..| | | |  . . . .| |  . .| | | |  . . .| | | |  .$.%.    ",
"    ` ) Q R E E ! ! ~ ~ ^ ^ ' ] [ [ [ [ [ [ [ [ ^ ^ ^ ~ ~ ~ ! E ! E R R R Y Y Y U U U U U U U U U U U U I U Y U Y U U W / _     ",
"%.` P G m v m b V C Z A S D F H L L L L L L L J J F D S A Z C V b v v c c l x l l l l l l l l l l l l l l l l l l l l n G P ` &.",
"$./ G k p e r y u u s d g h j M B B B B B B j B M j h g f s i i y r e w w w w 5 5 5 5 5 5 5 5 5 5 5 5 5 5 5 5 5 5 5 5 e k G ) %.",
"X.W m p 4 - - : > < 3 3 7 8 u 0 q a a a a a q q 0 9 9 7 7 1 < > : - * * * * % % % % % % % % % o % % % % % % % % % % * 4 p m Q ..",
" .Y l w * + O + @ $ & = = = , , 2 3 2 2 2 1 2 , , ; = = & $ $ @ + O O O o o o o o o o o o X X . X X o o o o o o o o + * w c R ..",
"..U l 5 % o o o o o o O O O O @ $ $ $ $ $ $ + @ @ @ + O O o o X X X X . X . . X . X X . . . . . X . . X . . . X X X O - e c R  .",
"X.U l 5 % o . . . . . X X X X X X o o o o o . . o X . X X . X X . . . . . . . . . . . . . . . . . . . . . . . . . X O - r v R ..",
"X.Y l 5 % o X . . . . . . . . X . . . . . . . . . . . . . . . . . . . . . . . . . . . . . . . . . . . . . . . . . X + : y b R ..",
" .Y l 5 % o . . . . . . . . . . . . . . . . . . . . . . . . . . . . . . . . . . . . . . . . . . . . . . . . . . . o + > u V ! ..",
" .Y l 5 % o . . . . . . . . . . . . . . . . . . . . . . . . . . . . . . . . . . . . . . . . . . . . . . . . . . . o $ < i V ! O.",
"X.Y l 5 % o X . . . . . . . . . . . . . . . . . . . . . . . . . . . . . . . . . . . . . . . . . . . . . . . . . X o $ 1 s Z ! O.",
" .U l 4 % o . . . . . . . . . . . . . . . . . . . . . . . . . . . . . . . . . . . . . . . . . . . . . . . . . . X O & 6 f A ! ` ",
" .Y l 5 % o . . . . . . . . . . . . . . . . . . . . . . . . . . . . . . . . . . . . . . . . . . . . . . . . . . X O = 7 g S ' @.",
"X.T l 5 % o . . . . . . . . . . . . . . . . . . . . . . . . . . . . . . . . . . . . . . . . . . . . . . . . . X X O = 9 h D ' +.",
" .T l 5 + X . . . . . . . . . . . . . . . . . . . . . . . . . . . . . . . . . . . . . . . . . . . . . . . . . . X O ; 0 h H ' +.",
" .U l 5 % o . . . . . . . . . . . . . . . . . . . . . . . . . . . . . . . . . . . . . . . . . . . . . . . . . . . o , 0 j H ] { ",
"X.U l 5 % . . . . . . . . . . . . . . . . . . . . . . . . . . . . . . . . . . . . . . . . . . . . . . . . . . . X @ , q B J [ #.",
" .U l 5 % o . . . . . . . . . . . . . . . . . . . . . . . . . . . . . . . . . . . . . . . . . . . . . . . . . . X $ 3 a N J [ #.",
" .U l 5 % o o . . . . . . . . . . . . . . . . . . . . . . . . . . . . . . . . . . . . . . . . . . . . . . . . . X $ 3 a B L [ #.",
" .T l 5 % o . . . . . . . . . . . . . . . . . . . . . . . . . . . . . . . . . . . . . . . . . . . . . . . . . . o $ 3 a B L { -.",
" .T l 5 % o . . . . . . . . . . . . . . . . . . . . . . . . . . . . . . . . . . . . . . . . . . . . . . . . . . o $ 3 a B L { -.",
" .T l 5 % o . . . . . . . . . . . . . . . . . . . . . . . . . . . . . . . . . . . . . . . . . . . . . . . . . . o $ 2 q B L { -.",
" .Y n 5 % o o . . . . . . . . . . . . . . . . . . . . . . . . . . . . . . . . . . . . . . . . . . . . . . . . . o $ 2 q B J [ -.",
"X.Y l 5 % o X . . . . . . . . . . . . . . . . . . . . . . . . . . . . . . . . . . . . . . . . . . . . . . . . . X $ , q N J [ #.",
"X.Y l 5 * o . . . . . . . . . . . . . . . . . . . . . . . . . . . . . . . . . . . . . . . . . . . . . . . . . . X @ , 0 N H ' @.",
"o.T z 5 * o . . . . . . . . . . . . . . . . . . . . . . . . . . . . . . . . . . . . . . . . . . . . . . . . . X X @ ; 0 j F ' @.",
"o.T c e * o X . . . . . . . . . . . . . . . . . . . . . . . . . . . . . . . . . . . . . . . . . . . . . . . . . X @ = 8 j D ~ +.",
"o.T b w * o X . . . . . . . . . . . . . . . . . . . . . . . . . . . . . . . . . . . . . . . . . . . . . . . . . X O = 8 f S ^ +.",
"o.E b r - + o . . . . . . . . . . . . . . . . . . . . . . . . . . . . . . . . . . . . . . . . . . . . . . . . . . O & 6 f A ~ +.",
"o.E b y : + o . . . . . . . . . . . . . . . . . . . . . . . . . . . . . . . . . . . . . . . . . . . . . . . . . . O & 1 s Z ~ O.",
"O.E V u > @ o . . . . . . . . . . . . . . . . . . . . . . . . . . . . . . . . . . . . . . . . . . . . . . . . . . o # < s C E o.",
"%.^ C i 1 $ o . . . . . . . . . . . . . . . . . . . . . . . . . . . . . . . . . . . . . . . . . . . . . . . . . . . O 4 u C ( +.",
"+.( A i 1 = o . . . . . . . . . . . . . . . . . . . . . . . . . . . . . . . . . . . . . . . . . . . . . . . . . . . % - y m R o.",
"+.~ S f 1 = O . . . . . . . . . . . . . . . . . . . . . . . . . . . . . . . . . . . . . . . . . . . . . . . . . . . o 4 e b R $.",
"+.^ D j 1 = O X . . . . . . . . . . . . . . . . . . . . . . . . . . . . . . . . . . . . . . . . . . . . . . . . . . o * w b T } ",
"+.^ S g 8 = O X . . . . . . . . . . . . . . . . . . . . . . . . . . . . . . . . . . . . . . . . . . . . . . . . . X O * w z Y o.",
"@.^ H j 0 ; @ X . . . . . . . . . . . . . . . . . . . . . . . . . . . . . . . . . . . . . . . . . . . . . . . . . . o * w b Y o.",
"#.] H j 0 , o . . . . . . . . . . . . . . . . . . . . . . . . . . . . . . . . . . . . . . . . . . . . . . . . . . . o % 5 z Y } ",
"#.[ L N q , O . . . . . . . . . . . . . . . . . . . . . . . . . . . . . . . . . . . . . . . . . . . . . . . . . . X o % w z Y ..",
"#.[ L N q 2 @ o . . . . . . . . . . . . . . . . . . . . . . . . . . . . . . . . . . . . . . . . . . . . . . . . . . o % 5 l T X.",
"-.[ L B q 2 $ o . . . . . . . . . . . . . . . . . . . . . . . . . . . . . . . . . . . . . . . . . . . . . . . . . X o % 5 l U  .",
"-.[ L B a 3 $ o . . . . . . . . . . . . . . . . . . . . . . . . . . . . . . . . . . . . . . . . . . . . . . . . . X o % 5 l U  .",
"-.[ L B a 3 $ o . . . . . . . . . . . . . . . . . . . . . . . . . . . . . . . . . . . . . . . . . . . . . . . . . . o % 5 l U  .",
"-.{ L B a 3 $ o . . . . . . . . . . . . . . . . . . . . . . . . . . . . . . . . . . . . . . . . . . . . . . . . . . o % 5 l U X.",
"-.[ L B a 2 $ o . . . . . . . . . . . . . . . . . . . . . . . . . . . . . . . . . . . . . . . . . . . . . . . . . . o % 5 l U  .",
"#.] L j q 2 $ X . . . . . . . . . . . . . . . . . . . . . . . . . . . . . . . . . . . . . . . . . . . . . . . . . o o % 5 l U X.",
"@.] L j 0 , $ X . . . . . . . . . . . . . . . . . . . . . . . . . . . . . . . . . . . . . . . . . . . . . . . . . . o % 5 l U  .",
"@.' F j 9 , O X . . . . . . . . . . . . . . . . . . . . . . . . . . . . . . . . . . . . . . . . . . . . . . . . . . o % 5 l U X.",
"%.^ S j 8 ; @ X . . . . . . . . . . . . . . . . . . . . . . . . . . . . . . . . . . . . . . . . . . . . . . . . . . o % 5 l U  .",
"+.^ S f 7 = O X . . . . . . . . . . . . . . . . . . . . . . . . . . . . . . . . . . . . . . . . . . . . . . . . . . . % 5 l U X.",
"O.^ A f 7 & o X X . . . . . . . . . . . . . . . . . . . . . . . . . . . . . . . . . . . . . . . . . . . . . . . . . . % 5 l U  .",
"O.~ Z s 1 $ o X . . . . . . . . . . . . . . . . . . . . . . . . . . . . . . . . . . . . . . . . . . . . . . . . . . o % 5 l W X.",
"O.! C i < $ o . . . . . . . . . . . . . . . . . . . . . . . . . . . . . . . . . . . . . . . . . . . . . . . . . . . o % 5 l U  .",
"o.E V u > + o . . . . . . . . . . . . . . . . . . . . . . . . . . . . . . . . . . . . . . . . . . . . . . . . . . . o % 5 l U X.",
"o.Q b y : + o . . . . . . . . . . . . . . . . . . . . . . . . . . . . . . . . . . . . . . X X X . . . . . . . . . . . % 5 l U X.",
"O.E v r - O o . . . . . . . . . . . . . . . . . . . . . . . . . . . X X X X X X X o o o o o X X X X X X X . . . . o o % 5 n U X.",
"..T n e * O o . . . . . X . X . . . X . X . . . . X . X X X X X X X o O O O @ @ @ $ $ $ $ $ @ @ @ @ O O O O o X o o o % w l U  .",
"..Y n w - + o o . o o X o o o o X o o X o o o o o o o o o O + + @ @ & & = = , , 2 2 3 3 3 3 3 2 , ; = = & $ # + O % O * 5 l U X.",
"o.E m t 4 * % % + + % % % % % % % % % % % % % % % % % * * * - : ; 2 3 6 7 8 9 0 q a a a a a a q 0 9 8 7 7 1 < < - - - 4 t n W X.",
"&.( G k t 5 5 5 5 5 5 4 5 5 4 5 5 5 5 5 5 5 5 5 5 w 5 w e e e u u i s f g j j j N N B B B B N N j j g g d s u u y r r p k G / &.",
"=.} I G n l l l l l l l l l l l l l l l l l l l l l x x x v v b V C Z S S D D J J J L L L L J J J F D S A A C V b v m m P P } =.",
"    _ / U U U U U U U U U U U U U U U U U U U U U U I R R E E ! E ! ~ ~ ^ ~ ] ] ] { { { { { ] ] ] ' ^ ~ ~ ! ! ! E R R Q ) }     ",
"    &.$. .| |  . . .| | | |  . .|  .| | | |  . . . . . .| ......O.` O.O.O.+.+.@.#.#.-.-.-.#.#.@.@.+.+.+.O.O...O.......o.%.*.    "
};
